<?xml version="1.0" standalone="no"?><!DOCTYPE svg PUBLIC "-//W3C//DTD SVG 1.1//EN" "http://www.w3.org/Graphics/SVG/1.1/DTD/svg11.dtd"><svg t="1629963820051" class="icon" viewBox="0 0 1092 1024" version="1.1" xmlns="http://www.w3.org/2000/svg" p-id="3005" xmlns:xlink="http://www.w3.org/1999/xlink" width="213.28125" height="200"><defs><style type="text/css"></style></defs><path d="M546.133333 0c-0.750933 0-1.501867 0.136533-2.321066 0.136533C243.780267 1.365333 0 245.76 0 546.133333c0 18.8416 15.291733 34.133333 34.133333 34.133334s34.133333-15.291733 34.133334-34.133334c0-32.221867 58.368-68.266667 136.533333-68.266666s136.533333 36.0448 136.533333 68.266666c0 0.068267 0.068267 0.136533 0.068267 0.273067 0.068267 0.750933 0 1.501867 0.068267 2.2528 0.136533 2.116267 1.092267 3.959467 1.6384 6.007467 0.477867 1.911467 0.682667 3.8912 1.501866 5.597866 1.024 2.321067 2.6624 4.164267 4.164267 6.144 1.092267 1.4336 1.911467 3.003733 3.208533 4.3008 1.979733 1.911467 4.369067 3.140267 6.690134 4.5056 1.365333 0.8192 2.4576 1.911467 3.959466 2.525867 3.8912 1.570133 8.260267 2.525867 12.834134 2.525867 0.8192 0 1.6384 0 2.4576-0.068267 1.911467-0.136533 3.413333-1.024 5.188266-1.4336 2.321067-0.6144 4.642133-0.955733 6.7584-1.911467 1.979733-0.955733 3.549867-2.321067 5.256534-3.549866 1.774933-1.297067 3.6864-2.4576 5.188266-4.096 1.501867-1.570133 2.4576-3.4816 3.618134-5.3248 1.160533-1.8432 2.4576-3.618133 3.2768-5.7344 0.750933-2.048 0.887467-4.3008 1.297066-6.5536 0.273067-1.8432 1.092267-3.549867 1.092267-5.461334 0-32.221867 58.368-68.266667 136.533333-68.266666 72.0896 0 126.702933 30.651733 134.894934 60.689066-0.136533 1.706667 0 3.345067-0.136534 5.051734a34.1504 34.1504 0 0 0 31.5392 36.522666c0.887467 0.136533 1.706667 0.136533 2.525867 0.136534 0.341333 0 0.6144-0.2048 0.955733-0.2048 0.341333 0 0.546133 0.2048 0.887467 0.2048 18.8416 0 34.133333-15.291733 34.133333-34.133334 0-32.221867 58.368-68.266667 136.533334-68.266666s136.533333 36.0448 136.533333 68.266666c0 18.8416 15.291733 34.133333 34.133333 34.133334s34.133333-15.291733 34.133334-34.133334c0-301.124267-245.009067-546.133333-546.133334-546.133333zM342.2208 444.757333C306.039467 423.048533 258.389333 409.6 204.8 409.6c-46.967467 0-89.2928 10.4448-123.4944 27.511467 43.963733-187.392 198.2464-332.253867 390.485333-362.496-75.707733 109.1584-120.285867 237.841067-129.570133 370.141866zM546.133333 409.6c-52.701867 0-99.5328 13.038933-135.509333 34.065067C420.727467 316.074667 467.421867 192.7168 545.1776 90.453333c77.550933 101.922133 124.177067 224.8704 134.485333 352.119467C643.959467 422.229333 597.879467 409.6 546.133333 409.6z m341.333334 0c-54.408533 0-102.877867 13.789867-139.195734 36.113067-9.216-132.778667-53.8624-261.9392-129.911466-371.370667 193.194667 29.4912 348.501333 174.762667 392.6016 362.769067-34.2016-17.066667-76.526933-27.511467-123.4944-27.511467zM546.133333 750.933333c56.456533 0 102.4 45.943467 102.4 102.4 0 44.4416-28.603733 81.988267-68.266666 96.119467V989.866667c0 18.8416-15.291733 34.133333-34.133334 34.133333s-34.133333-15.291733-34.133333-34.133333v-34.133334h-34.133333c-18.8416 0-34.133333-15.291733-34.133334-34.133333s15.291733-34.133333 34.133334-34.133333h68.266666c18.8416 0 34.133333-15.291733 34.133334-34.133334s-15.291733-34.133333-34.133334-34.133333c-56.456533 0-102.4-45.943467-102.4-102.4 0-44.4416 28.603733-81.988267 68.266667-96.119467V580.266667c0-18.8416 15.291733-34.133333 34.133333-34.133334s34.133333 15.291733 34.133334 34.133334v34.133333h34.133333c18.8416 0 34.133333 15.291733 34.133333 34.133333s-15.291733 34.133333-34.133333 34.133334h-68.266667c-18.8416 0-34.133333 15.291733-34.133333 34.133333s15.291733 34.133333 34.133333 34.133333z" fill="#20A0FF" p-id="3006"></path></svg>